ffmpeg started on 2025-05-24 at 14:40:11
Report written to "D:\Convert\FFMetrics\reports\ssim_report-6.txt"
Log level: 32
Command line:
ffmpeg -hide_banner -nostdin -i "G:\\\xc0\xed\xe8\xec\xe5\\\xce\xed\xe3\xee\xe8\xed\xe3\xe8\\!_33_\xc7\xe8\xec\xe0_2024\\DreamCast\\\xc2\xf0\xe5\xec\xff \xef\xfb\xf2\xee\xea, \xef\xf0\xe8\xed\xf6\xe5\xf1\xf1\xe0!\\[DC] Hime-sama Goumon no Jikan Desu - 06_Telegram_HEVC.mkv" -i "G:\\\xc0\xed\xe8\xec\xe5\\\xce\xed\xe3\xee\xe8\xed\xe3\xe8\\!_33_\xc7\xe8\xec\xe0_2024\\DreamCast\\\xc2\xf0\xe5\xec\xff \xef\xfb\xf2\xee\xea, \xef\xf0\xe8\xed\xf6\xe5\xf1\xf1\xe0!\\[DC] Hime-sama Goumon no Jikan Desu - 06_Telegram.mp4" -lavfi "[0:v]settb=AVTB,setpts=PTS-STARTPTS,format=pix_fmts=yuv420p10,fps=24000/1001,scale=1920:1080:flags=bicubic[main];[1:v]settb=AVTB,setpts=PTS-STARTPTS,format=pix_fmts=yuv420p,fps=24000/1001,scale=1920:1080:flags=bicubic[ref];[main][ref]ssim=eof_action=endall:stats_file='D\\:/Convert/FFMetrics/logs/ssim_logfile-6.txt'" -f null -
Input #0, matroska,webm, from 'G:\Аниме\Онгоинги\!_33_Зима_2024\DreamCast\Время пыток, принцесса!\[DC] Hime-sama Goumon no Jikan Desu - 06_Telegram_HEVC.mkv':
  Metadata:
    COMPATIBLE_BRANDS: isomiso2avc1mp41
    MAJOR_BRAND     : isom
    MINOR_VERSION   : 512
    ENCODER         : Lavf61.7.100
  Duration: 00:23:46.65, start: -0.021000, bitrate: 1150 kb/s
  Stream #0:0: Video: hevc (Main 10), yuv420p10le(tv, bt709, progressive), 1920x1080 [SAR 1:1 DAR 16:9], 23.98 fps, 23.98 tbr, 1k tbn (default)
      Metadata:
        HANDLER_NAME    : VideoHandler
        VENDOR_ID       : [0][0][0][0]
        ENCODER         : Lavc61.19.100 libx265
        BPS             : 953742
        DURATION        : 00:23:46.549708333
        NUMBER_OF_FRAMES: 34203
        NUMBER_OF_BYTES : 170070077
        _STATISTICS_WRITING_APP: mkvpropedit v66.0.0 ('Josie') 64-bit
        _STATISTICS_WRITING_DATE_UTC: 2025-05-21 15:10:04
        _STATISTICS_TAGS: BPS DURATION NUMBER_OF_FRAMES NUMBER_OF_BYTES
  Stream #0:1: Audio: aac (LC), 48000 Hz, stereo, fltp (default)
      Metadata:
        HANDLER_NAME    : SoundHandler
        VENDOR_ID       : [0][0][0][0]
        ENCODER         : Lavc61.19.100 aac
        BPS             : 192983
        DURATION        : 00:23:46.645000000
        NUMBER_OF_FRAMES: 66875
        NUMBER_OF_BYTES : 34414827
        _STATISTICS_WRITING_APP: mkvpropedit v66.0.0 ('Josie') 64-bit
        _STATISTICS_WRITING_DATE_UTC: 2025-05-21 15:10:04
        _STATISTICS_TAGS: BPS DURATION NUMBER_OF_FRAMES NUMBER_OF_BYTES
Input #1, mov,mp4,m4a,3gp,3g2,mj2, from 'G:\Аниме\Онгоинги\!_33_Зима_2024\DreamCast\Время пыток, принцесса!\[DC] Hime-sama Goumon no Jikan Desu - 06_Telegram.mp4':
  Metadata:
    major_brand     : isom
    minor_version   : 512
    compatible_brands: isomiso2avc1mp41
    encoder         : Lavf60.16.100
  Duration: 00:23:46.62, start: 0.000000, bitrate: 3601 kb/s
  Stream #1:0[0x1](und): Video: h264 (High) (avc1 / 0x31637661), yuv420p(tv, bt709, progressive), 1920x1080 [SAR 1:1 DAR 16:9], 3453 kb/s, 23.98 fps, 23.98 tbr, 24k tbn (default)
      Metadata:
        handler_name    : VideoHandler
        vendor_id       : [0][0][0][0]
        encoder         : Lavc60.31.102 h264_qsv
  Stream #1:1[0x2](und): Audio: aac (HE-AACv2) (mp4a / 0x6134706D), 48000 Hz, stereo, fltp, 144 kb/s (default)
      Metadata:
        handler_name    : SoundHandler
        vendor_id       : [0][0][0][0]
Stream mapping:
  Stream #0:0 (hevc) -> settb:default
  Stream #1:0 (h264) -> settb:default
  ssim:default -> Stream #0:0 (wrapped_avframe)
  Stream #0:1 -> #0:1 (aac (native) -> pcm_s16le (native))
Output #0, null, to 'pipe:':
  Metadata:
    COMPATIBLE_BRANDS: isomiso2avc1mp41
    MAJOR_BRAND     : isom
    MINOR_VERSION   : 512
    encoder         : Lavf61.7.100
  Stream #0:0: Video: wrapped_avframe, yuv420p10le(tv, bt709, progressive), 1920x1080 [SAR 1:1 DAR 16:9], q=2-31, 200 kb/s, 23.98 fps, 23.98 tbn
      Metadata:
        encoder         : Lavc61.19.100 wrapped_avframe
  Stream #0:1: Audio: pcm_s16le, 48000 Hz, stereo, s16, 1536 kb/s (default)
      Metadata:
        HANDLER_NAME    : SoundHandler
        VENDOR_ID       : [0][0][0][0]
        _STATISTICS_TAGS: BPS DURATION NUMBER_OF_FRAMES NUMBER_OF_BYTES
        BPS             : 192983
        DURATION        : 00:23:46.645000000
        NUMBER_OF_FRAMES: 66875
        NUMBER_OF_BYTES : 34414827
        _STATISTICS_WRITING_APP: mkvpropedit v66.0.0 ('Josie') 64-bit
        _STATISTICS_WRITING_DATE_UTC: 2025-05-21 15:10:04
        encoder         : Lavc61.19.100 pcm_s16le
frame=  186 fps=0.0 q=-0.0 size=N/A time=00:00:07.75 bitrate=N/A speed=15.1x    frame=  435 fps=418 q=-0.0 size=N/A time=00:00:18.14 bitrate=N/A speed=17.4x    frame=  692 fps=446 q=-0.0 size=N/A time=00:00:28.86 bitrate=N/A speed=18.6x    frame=  959 fps=466 q=-0.0 size=N/A time=00:00:39.99 bitrate=N/A speed=19.4x    frame= 1251 fps=485 q=-0.0 size=N/A time=00:00:52.17 bitrate=N/A speed=20.2x    frame= 1517 fps=491 q=-0.0 size=N/A time=00:01:03.27 bitrate=N/A speed=20.5x    frame= 1806 fps=500 q=-0.0 size=N/A time=00:01:15.32 bitrate=N/A speed=20.8x    frame= 2067 fps=501 q=-0.0 size=N/A time=00:01:26.21 bitrate=N/A speed=20.9x    frame= 2306 fps=496 q=-0.0 size=N/A time=00:01:36.17 bitrate=N/A speed=20.7x    frame= 2515 fps=486 q=-0.0 size=N/A time=00:01:44.89 bitrate=N/A speed=20.3x    frame= 2716 fps=478 q=-0.0 size=N/A time=00:01:53.27 bitrate=N/A speed=19.9x    frame= 2948 fps=474 q=-0.0 size=N/A time=00:02:02.95 bitrate=N/A speed=19.8x    frame= 3194 fps=475 q=-0.0 size=N/A time=00:02:13.21 bitrate=N/A speed=19.8x    frame= 3424 fps=473 q=-0.0 size=N/A time=00:02:22.80 bitrate=N/A speed=19.7x    frame= 3638 fps=469 q=-0.0 size=N/A time=00:02:31.73 bitrate=N/A speed=19.6x    frame= 3825 fps=463 q=-0.0 size=N/A time=00:02:39.53 bitrate=N/A speed=19.3x    frame= 4016 fps=457 q=-0.0 size=N/A time=00:02:47.50 bitrate=N/A speed=19.1x    frame= 4202 fps=452 q=-0.0 size=N/A time=00:02:55.25 bitrate=N/A speed=18.8x    frame= 4429 fps=451 q=-0.0 size=N/A time=00:03:04.72 bitrate=N/A speed=18.8x    frame= 4671 fps=452 q=-0.0 size=N/A time=00:03:14.81 bitrate=N/A speed=18.9x    frame= 4929 fps=455 q=-0.0 size=N/A time=00:03:25.58 bitrate=N/A speed=  19x    frame= 5194 fps=457 q=-0.0 size=N/A time=00:03:36.63 bitrate=N/A speed=19.1x    frame= 5468 fps=460 q=-0.0 size=N/A time=00:03:48.06 bitrate=N/A speed=19.2x    frame= 5733 fps=463 q=-0.0 size=N/A time=00:03:59.11 bitrate=N/A speed=19.3x    frame= 5986 fps=464 q=-0.0 size=N/A time=00:04:09.66 bitrate=N/A speed=19.4x    frame= 6279 fps=468 q=-0.0 size=N/A time=00:04:21.88 bitrate=N/A speed=19.5x    frame= 6533 fps=469 q=-0.0 size=N/A time=00:04:32.48 bitrate=N/A speed=19.5x    frame= 6783 fps=469 q=-0.0 size=N/A time=00:04:42.90 bitrate=N/A speed=19.6x    frame= 7024 fps=469 q=-0.0 size=N/A time=00:04:52.95 bitrate=N/A speed=19.6x    frame= 7276 fps=470 q=-0.0 size=N/A time=00:05:03.46 bitrate=N/A speed=19.6x    frame= 7557 fps=472 q=-0.0 size=N/A time=00:05:15.18 bitrate=N/A speed=19.7x    frame= 7806 fps=472 q=-0.0 size=N/A time=00:05:25.57 bitrate=N/A speed=19.7x    frame= 8058 fps=473 q=-0.0 size=N/A time=00:05:36.08 bitrate=N/A speed=19.7x    frame= 8284 fps=472 q=-0.0 size=N/A time=00:05:45.51 bitrate=N/A speed=19.7x    frame= 8532 fps=472 q=-0.0 size=N/A time=00:05:55.85 bitrate=N/A speed=19.7x    frame= 8774 fps=472 q=-0.0 size=N/A time=00:06:05.94 bitrate=N/A speed=19.7x    frame= 9020 fps=473 q=-0.0 size=N/A time=00:06:16.20 bitrate=N/A speed=19.7x    frame= 9266 fps=472 q=-0.0 size=N/A time=00:06:26.46 bitrate=N/A speed=19.7x    frame= 9525 fps=473 q=-0.0 size=N/A time=00:06:37.27 bitrate=N/A speed=19.7x    frame= 9775 fps=474 q=-0.0 size=N/A time=00:06:47.69 bitrate=N/A speed=19.8x    frame=10035 fps=474 q=-0.0 size=N/A time=00:06:58.54 bitrate=N/A speed=19.8x    frame=10303 fps=475 q=-0.0 size=N/A time=00:07:09.72 bitrate=N/A speed=19.8x    frame=10580 fps=477 q=-0.0 size=N/A time=00:07:21.27 bitrate=N/A speed=19.9x    frame=10859 fps=478 q=-0.0 size=N/A time=00:07:32.95 bitrate=N/A speed=19.9x    frame=11131 fps=479 q=-0.0 size=N/A time=00:07:44.25 bitrate=N/A speed=  20x    frame=11401 fps=480 q=-0.0 size=N/A time=00:07:55.51 bitrate=N/A speed=  20x    frame=11681 fps=482 q=-0.0 size=N/A time=00:08:07.19 bitrate=N/A speed=20.1x    frame=11967 fps=483 q=-0.0 size=N/A time=00:08:19.12 bitrate=N/A speed=20.2x    frame=12221 fps=483 q=-0.0 size=N/A time=00:08:29.71 bitrate=N/A speed=20.2x    frame=12464 fps=483 q=-0.0 size=N/A time=00:08:39.85 bitrate=N/A speed=20.2x    frame=12716 fps=483 q=-0.0 size=N/A time=00:08:50.36 bitrate=N/A speed=20.2x    frame=12989 fps=484 q=-0.0 size=N/A time=00:09:01.74 bitrate=N/A speed=20.2x    frame=13233 fps=484 q=-0.0 size=N/A time=00:09:11.92 bitrate=N/A speed=20.2x    frame=13474 fps=484 q=-0.0 size=N/A time=00:09:21.97 bitrate=N/A speed=20.2x    frame=13705 fps=483 q=-0.0 size=N/A time=00:09:31.61 bitrate=N/A speed=20.1x    frame=13930 fps=482 q=-0.0 size=N/A time=00:09:40.99 bitrate=N/A speed=20.1x    frame=14168 fps=482 q=-0.0 size=N/A time=00:09:50.92 bitrate=N/A speed=20.1x    frame=14392 fps=481 q=-0.0 size=N/A time=00:10:00.26 bitrate=N/A speed=20.1x    frame=14636 fps=481 q=-0.0 size=N/A time=00:10:10.44 bitrate=N/A speed=  20x    frame=14914 fps=482 q=-0.0 size=N/A time=00:10:22.03 bitrate=N/A speed=20.1x    frame=15195 fps=483 q=-0.0 size=N/A time=00:10:33.75 bitrate=N/A speed=20.1x    frame=15464 fps=483 q=-0.0 size=N/A time=00:10:44.97 bitrate=N/A speed=20.2x    frame=15717 fps=484 q=-0.0 size=N/A time=00:10:55.52 bitrate=N/A speed=20.2x    frame=15976 fps=484 q=-0.0 size=N/A time=00:11:06.33 bitrate=N/A speed=20.2x    frame=16207 fps=483 q=-0.0 size=N/A time=00:11:15.96 bitrate=N/A speed=20.2x    frame=16473 fps=484 q=-0.0 size=N/A time=00:11:27.06 bitrate=N/A speed=20.2x    frame=16727 fps=484 q=-0.0 size=N/A time=00:11:37.65 bitrate=N/A speed=20.2x    frame=16990 fps=484 q=-0.0 size=N/A time=00:11:48.62 bitrate=N/A speed=20.2x    frame=17248 fps=485 q=-0.0 size=N/A time=00:11:59.38 bitrate=N/A speed=20.2x    frame=17512 fps=485 q=-0.0 size=N/A time=00:12:10.39 bitrate=N/A speed=20.2x    frame=17748 fps=484 q=-0.0 size=N/A time=00:12:20.23 bitrate=N/A speed=20.2x    frame=18013 fps=485 q=-0.0 size=N/A time=00:12:31.29 bitrate=N/A speed=20.2x    frame=18306 fps=486 q=-0.0 size=N/A time=00:12:43.51 bitrate=N/A speed=20.3x    frame=18586 fps=487 q=-0.0 size=N/A time=00:12:55.19 bitrate=N/A speed=20.3x    frame=18855 fps=487 q=-0.0 size=N/A time=00:13:06.41 bitrate=N/A speed=20.3x    frame=19125 fps=488 q=-0.0 size=N/A time=00:13:17.67 bitrate=N/A speed=20.3x    frame=19390 fps=488 q=-0.0 size=N/A time=00:13:28.72 bitrate=N/A speed=20.4x    frame=19628 fps=488 q=-0.0 size=N/A time=00:13:38.65 bitrate=N/A speed=20.3x    frame=19896 fps=488 q=-0.0 size=N/A time=00:13:49.82 bitrate=N/A speed=20.4x    frame=20150 fps=488 q=-0.0 size=N/A time=00:14:00.42 bitrate=N/A speed=20.4x    frame=20405 fps=488 q=-0.0 size=N/A time=00:14:11.05 bitrate=N/A speed=20.4x    frame=20675 fps=489 q=-0.0 size=N/A time=00:14:22.31 bitrate=N/A speed=20.4x    frame=20939 fps=489 q=-0.0 size=N/A time=00:14:33.33 bitrate=N/A speed=20.4x    frame=21210 fps=490 q=-0.0 size=N/A time=00:14:44.63 bitrate=N/A speed=20.4x    frame=21494 fps=490 q=-0.0 size=N/A time=00:14:56.47 bitrate=N/A speed=20.4x    frame=21789 fps=491 q=-0.0 size=N/A time=00:15:08.78 bitrate=N/A speed=20.5x    frame=22047 fps=491 q=-0.0 size=N/A time=00:15:19.54 bitrate=N/A speed=20.5x    frame=22304 fps=491 q=-0.0 size=N/A time=00:15:30.26 bitrate=N/A speed=20.5x    frame=22584 fps=492 q=-0.0 size=N/A time=00:15:41.94 bitrate=N/A speed=20.5x    frame=22865 fps=492 q=-0.0 size=N/A time=00:15:53.66 bitrate=N/A speed=20.5x    frame=23144 fps=493 q=-0.0 size=N/A time=00:16:05.29 bitrate=N/A speed=20.6x    frame=23354 fps=492 q=-0.0 size=N/A time=00:16:14.05 bitrate=N/A speed=20.5x    frame=23590 fps=492 q=-0.0 size=N/A time=00:16:23.89 bitrate=N/A speed=20.5x    frame=23848 fps=492 q=-0.0 size=N/A time=00:16:34.66 bitrate=N/A speed=20.5x    frame=24110 fps=492 q=-0.0 size=N/A time=00:16:45.58 bitrate=N/A speed=20.5x    frame=24360 fps=492 q=-0.0 size=N/A time=00:16:56.01 bitrate=N/A speed=20.5x    frame=24639 fps=492 q=-0.0 size=N/A time=00:17:07.65 bitrate=N/A speed=20.5x    frame=24920 fps=493 q=-0.0 size=N/A time=00:17:19.37 bitrate=N/A speed=20.6x    frame=25156 fps=493 q=-0.0 size=N/A time=00:17:29.21 bitrate=N/A speed=20.5x    frame=25408 fps=492 q=-0.0 size=N/A time=00:17:39.72 bitrate=N/A speed=20.5x    frame=25627 fps=492 q=-0.0 size=N/A time=00:17:48.85 bitrate=N/A speed=20.5x    frame=25835 fps=491 q=-0.0 size=N/A time=00:17:57.53 bitrate=N/A speed=20.5x    frame=26109 fps=491 q=-0.0 size=N/A time=00:18:08.96 bitrate=N/A speed=20.5x    frame=26360 fps=491 q=-0.0 size=N/A time=00:18:19.43 bitrate=N/A speed=20.5x    frame=26611 fps=491 q=-0.0 size=N/A time=00:18:29.90 bitrate=N/A speed=20.5x    frame=26838 fps=491 q=-0.0 size=N/A time=00:18:39.36 bitrate=N/A speed=20.5x    frame=27102 fps=491 q=-0.0 size=N/A time=00:18:50.37 bitrate=N/A speed=20.5x    frame=27319 fps=490 q=-0.0 size=N/A time=00:18:59.42 bitrate=N/A speed=20.4x    frame=27570 fps=490 q=-0.0 size=N/A time=00:19:09.89 bitrate=N/A speed=20.4x    frame=27820 fps=490 q=-0.0 size=N/A time=00:19:20.32 bitrate=N/A speed=20.4x    frame=28038 fps=489 q=-0.0 size=N/A time=00:19:29.41 bitrate=N/A speed=20.4x    frame=28301 fps=490 q=-0.0 size=N/A time=00:19:40.38 bitrate=N/A speed=20.4x    frame=28564 fps=490 q=-0.0 size=N/A time=00:19:51.35 bitrate=N/A speed=20.4x    frame=28811 fps=490 q=-0.0 size=N/A time=00:20:01.65 bitrate=N/A speed=20.4x    frame=29079 fps=490 q=-0.0 size=N/A time=00:20:12.83 bitrate=N/A speed=20.4x    frame=29303 fps=490 q=-0.0 size=N/A time=00:20:22.17 bitrate=N/A speed=20.4x    frame=29549 fps=489 q=-0.0 size=N/A time=00:20:32.43 bitrate=N/A speed=20.4x    frame=29770 fps=489 q=-0.0 size=N/A time=00:20:41.65 bitrate=N/A speed=20.4x    frame=30012 fps=489 q=-0.0 size=N/A time=00:20:51.75 bitrate=N/A speed=20.4x    frame=30194 fps=488 q=-0.0 size=N/A time=00:20:59.34 bitrate=N/A speed=20.3x    frame=30452 fps=488 q=-0.0 size=N/A time=00:21:10.10 bitrate=N/A speed=20.3x    frame=30728 fps=488 q=-0.0 size=N/A time=00:21:21.61 bitrate=N/A speed=20.4x    frame=30994 fps=488 q=-0.0 size=N/A time=00:21:32.70 bitrate=N/A speed=20.4x    frame=31184 fps=487 q=-0.0 size=N/A time=00:21:40.63 bitrate=N/A speed=20.3x    frame=31361 fps=486 q=-0.0 size=N/A time=00:21:48.01 bitrate=N/A speed=20.3x    frame=31533 fps=485 q=-0.0 size=N/A time=00:21:55.18 bitrate=N/A speed=20.2x    frame=31738 fps=484 q=-0.0 size=N/A time=00:22:03.73 bitrate=N/A speed=20.2x    frame=31932 fps=483 q=-0.0 size=N/A time=00:22:11.83 bitrate=N/A speed=20.2x    frame=32145 fps=483 q=-0.0 size=N/A time=00:22:20.71 bitrate=N/A speed=20.1x    frame=32328 fps=482 q=-0.0 size=N/A time=00:22:28.34 bitrate=N/A speed=20.1x    frame=32495 fps=481 q=-0.0 size=N/A time=00:22:35.31 bitrate=N/A speed=  20x    frame=32623 fps=479 q=-0.0 size=N/A time=00:22:40.65 bitrate=N/A speed=  20x    frame=32804 fps=478 q=-0.0 size=N/A time=00:22:48.20 bitrate=N/A speed=19.9x    frame=33015 fps=477 q=-0.0 size=N/A time=00:22:57.00 bitrate=N/A speed=19.9x    frame=33259 fps=477 q=-0.0 size=N/A time=00:23:07.17 bitrate=N/A speed=19.9x    frame=33516 fps=478 q=-0.0 size=N/A time=00:23:17.89 bitrate=N/A speed=19.9x    frame=33775 fps=478 q=-0.0 size=N/A time=00:23:28.69 bitrate=N/A speed=19.9x    frame=34035 fps=478 q=-0.0 size=N/A time=00:23:39.54 bitrate=N/A speed=19.9x    [Parsed_ssim_10 @ 00000181e6335440] SSIM Y:0.994800 (22.839615) U:0.994037 (22.245319) V:0.994422 (22.535337) All:0.994610 (22.683767)
[out#0/null @ 00000181d8f3eec0] video:14697KiB audio:267500KiB subtitle:0KiB other streams:0KiB global headers:0KiB muxing overhead: unknown
frame=34203 fps=478 q=-0.0 Lsize=N/A time=00:23:46.55 bitrate=N/A speed=19.9x    
